<svg width="104" height="45" viewBox="0 0 104 45" fill="none" xmlns="http://www.w3.org/2000/svg">
<path d="M10.6175 44.5292C4.97608 44.5292 0.388214 39.9387 0.388214 34.3012V29.9985H6.08589V34.3012C6.08589 36.7993 8.1181 38.8315 10.6162 38.8315C13.117 38.8315 15.1465 36.7993 15.1465 34.3012V29.9985H20.8468V34.3012C20.8482 39.9387 16.2576 44.5292 10.6175 44.5292Z" fill="#253248"/>
<path d="M41.075 21.3555V15.2361H42.9452V21.2792C42.9452 23.2525 43.9599 24.3168 45.6307 24.3168C47.2854 24.3168 48.3028 23.3127 48.3028 21.3555V15.2361H50.1704V21.2631C50.1704 24.436 48.3805 26.0304 45.6012 26.0304C42.8354 26.0304 41.075 24.436 41.075 21.3555ZM52.0607 17.8694H53.8974V19.1158C54.4155 18.3567 55.1572 17.7034 56.4035 17.7034C58.2108 17.7034 59.2577 18.9163 59.2577 20.7865V25.8871H57.421V21.3314C57.421 20.0877 56.7971 19.3742 55.7034 19.3742C54.6431 19.3742 53.8961 20.1172 53.8961 21.3635V25.8858H52.0593V17.8694H52.0607ZM61.5818 17.8694H63.4185V25.8858H61.5818V17.8694ZM61.5055 14.8947H63.4788V16.6391H61.5055V14.8947ZM66.1964 23.6715V19.4491H65.179V17.8708H66.1964V15.6699H68.0332V17.8708H70.1886V19.4518H68.0332V23.3837C68.0332 24.0959 68.3987 24.3851 69.0212 24.3851C69.4295 24.3851 69.795 24.2954 70.1591 24.1133V25.6154C69.7053 25.8738 69.1885 26.0264 68.5044 26.0264C67.1523 26.025 66.1964 25.432 66.1964 23.6715ZM77.0081 21.3167C76.8849 20.1332 76.1861 19.2055 74.9732 19.2055C73.85 19.2055 73.0602 20.0703 72.8915 21.3167H77.0081ZM71.0708 21.9084V21.879C71.0708 19.5884 72.6947 17.7048 74.9866 17.7048C77.5396 17.7048 78.8288 19.7075 78.8288 22.0142C78.8288 22.1829 78.8154 22.3489 78.7993 22.5309H72.9075C73.107 23.8375 74.0321 24.5658 75.2155 24.5658C76.1111 24.5658 76.7497 24.2311 77.387 23.6086L78.4646 24.5658C77.7056 25.4775 76.6573 26.0679 75.1861 26.0679C72.8607 26.0679 71.0708 24.3837 71.0708 21.9084ZM86.4502 21.8937V21.8642C86.4502 20.3166 85.3565 19.2992 84.1262 19.2992C82.8664 19.2992 81.8182 20.2698 81.8182 21.8642V21.8937C81.8182 23.4426 82.8825 24.4601 84.1262 24.4601C85.3565 24.4601 86.4502 23.4265 86.4502 21.8937ZM79.9654 21.8937V21.8642C79.9654 19.2055 81.7727 17.7034 83.6857 17.7034C85.0084 17.7034 85.8438 18.3701 86.4208 19.1158V14.8037H88.2575V25.8871H86.4208V24.5511C85.8277 25.3891 84.9923 26.0558 83.6857 26.0558C81.8048 26.0545 79.9654 24.5497 79.9654 21.8937ZM45.1206 33.6358C46.533 33.6358 47.4152 32.8459 47.4152 31.7361V31.7067C47.4152 30.463 46.5196 29.811 45.1206 29.811H42.9492V33.6371H45.1206V33.6358ZM41.083 28.1095H45.2732C47.7486 28.1095 49.3109 29.5218 49.3109 31.6638V31.6933C49.3109 34.0776 47.3978 35.3199 45.0604 35.3199H42.9492V38.7377H41.0817V28.1095H41.083ZM55.5079 35.3802C55.0367 35.1981 54.3847 35.0615 53.6712 35.0615C52.5172 35.0615 51.8344 35.5314 51.8344 36.3052V36.3347C51.8344 37.0937 52.5172 37.5208 53.3833 37.5208C54.5962 37.5208 55.5093 36.838 55.5093 35.834V35.3802H55.5079ZM55.4611 38.735V37.7471C54.9149 38.4004 54.0795 38.9037 52.8652 38.9037C51.3471 38.9037 50.011 38.0362 50.011 36.4284V36.3989C50.011 34.6224 51.394 33.7723 53.2602 33.7723C54.2321 33.7723 54.8546 33.9075 55.4785 34.1043V33.9544C55.4785 32.8446 54.7796 32.2368 53.5025 32.2368C52.6069 32.2368 51.9402 32.4322 51.2119 32.7375L50.7112 31.2649C51.5908 30.8699 52.4556 30.5955 53.7622 30.5955C56.1318 30.5955 57.2858 31.8419 57.2858 33.9812V38.735H55.4611ZM58.6044 40.7244L59.2283 39.3589C59.5603 39.541 59.9244 39.6628 60.306 39.6628C60.8227 39.6628 61.1413 39.4339 61.4426 38.735L58.1037 30.7187H60.061L62.3395 36.6694L64.4213 30.7187H66.3343L63.1454 38.964C62.5082 40.6026 61.796 41.209 60.5028 41.209C59.729 41.209 59.1654 41.0296 58.6044 40.7244ZM67.6061 30.7187H69.4456V31.9316C69.9596 31.2194 70.6585 30.5527 71.8888 30.5527C73.0428 30.5527 73.8473 31.1136 74.2717 31.965C74.925 31.1136 75.7738 30.5527 76.9907 30.5527C78.7351 30.5527 79.7994 31.6598 79.7994 33.6197V38.735H77.9626V34.1793C77.9626 32.9035 77.3696 32.2194 76.3387 32.2194C75.3374 32.2194 74.6211 32.9182 74.6211 34.2088V38.7337H72.7844V34.1619C72.7844 32.9182 72.1779 32.2181 71.1605 32.2181C70.143 32.2181 69.4456 32.9771 69.4456 34.2235V38.7324H67.6061V30.7187ZM86.9215 34.1659C86.7983 32.9798 86.1022 32.0547 84.8866 32.0547C83.7647 32.0547 82.9735 32.9196 82.8075 34.1659H86.9215ZM80.9828 34.7563V34.7269C80.9828 32.4363 82.6067 30.5527 84.9013 30.5527C87.4516 30.5527 88.7435 32.5554 88.7435 34.8621C88.7435 35.0307 88.7274 35.1968 88.7114 35.3802H82.8223C83.0177 36.6868 83.9454 37.415 85.1289 37.415C86.0245 37.415 86.6618 37.0804 87.3003 36.4578L88.3767 37.415C87.6176 38.324 86.5707 38.9171 85.0954 38.9171C82.7767 38.9184 80.9828 37.233 80.9828 34.7563ZM89.9872 30.7187H91.8239V31.965C92.3407 31.2033 93.0837 30.5527 94.3301 30.5527C96.1374 30.5527 97.1843 31.7656 97.1843 33.6331V38.735H95.3475V34.1793C95.3475 32.9356 94.725 32.2194 93.6299 32.2194C92.5656 32.2194 91.8239 32.9651 91.8239 34.2088V38.7337H89.9872V30.7187ZM99.4762 36.5167V32.297H98.4587V30.7187H99.4762V28.5178H101.313V30.7187H103.471V32.297H101.313V36.2289C101.313 36.9451 101.677 37.233 102.301 37.233C102.696 37.233 103.087 37.1406 103.439 36.9572V38.4619C102.984 38.7217 102.467 38.8703 101.784 38.8703C100.435 38.8716 99.4762 38.2812 99.4762 36.5167ZM25.148 29.9971H20.8452V24.2967H25.148C27.6461 24.2967 29.6783 22.2645 29.6783 19.7664C29.6783 17.2683 27.6461 15.2361 25.148 15.2361H20.8452V9.53711H25.148C30.7894 9.53711 35.3759 14.125 35.3759 19.7664C35.3759 25.4065 30.7894 29.9971 25.148 29.9971Z" fill="#34445F"/>
</svg>
