<svg width="208" height="229" viewBox="0 0 208 229" fill="none" xmlns="http://www.w3.org/2000/svg">
<rect width="208" height="229" fill="#F5F5F5"/>
<g id="Home page 6" clip-path="url(#clip0_349_13497)">
<rect width="1920" height="10843" transform="translate(-420 -3616)" fill="white"/>
<g id="Frame 1618872028">
<g id="Frame 1618872012">
<g id="Group 1000000996">
<g id="Group 1000000993">
<circle id="Ellipse 12" cx="114.255" cy="160.323" r="104.677" fill="#EAF0FE"/>
<circle id="Ellipse 13" cx="125.455" cy="145.677" r="104.177" stroke="#EAF0FE"/>
</g>
<g id="Group">
<g id="Group_2">
<path id="Vector" d="M163.213 80.246L142.885 81.9956C142.487 77.406 141.538 73.007 140.052 68.9294C130.413 42.4435 101.025 28.7394 74.5425 38.376C48.0529 48.0157 34.3489 77.4037 43.9879 103.89C45.4644 107.946 47.5637 111.928 50.2256 115.727L33.5095 127.437C29.8274 122.175 26.9001 116.6 24.8146 110.866C11.3284 73.8095 30.509 32.687 67.5657 19.2008C104.622 5.71466 145.741 24.894 159.227 61.9507C161.323 67.7113 162.667 73.8679 163.213 80.246Z" fill="#FBAF00"/>
<path id="Vector_2" d="M26.9974 71.1268C30.1419 51.8601 43.588 34.5903 61.4945 26.8169" stroke="white" stroke-width="0.897428" stroke-miterlimit="10" stroke-linecap="round" stroke-linejoin="round"/>
</g>
<g id="Group_3">
<path id="Vector_3" d="M16.6623 123.097C17.3051 130.481 23.4668 150.682 26.1209 157.979C42.4428 202.829 92.0331 225.955 136.883 209.633C181.733 193.311 204.861 143.72 188.539 98.8703C185.883 91.5738 177.619 72.1384 173.367 66.0689L16.6623 123.097Z" fill="#FDDA8A"/>
<path id="Vector_4" d="M124.086 123.978C120.826 115.02 110.921 110.402 101.963 113.662C93.0069 116.922 88.3883 126.826 91.6486 135.783C94.2907 143.042 101.302 147.368 108.632 147.043L115.104 183.6L136.85 175.687L118.312 143.521C124.137 139.058 126.728 131.239 124.086 123.978Z" fill="#060305"/>
<path id="Vector_5" d="M87.5211 133.686C86.3931 129.27 86.8644 124.465 88.8257 120.353C90.787 116.241 94.2242 112.849 98.3653 110.947" stroke="#060305" stroke-width="0.897428" stroke-miterlimit="10" stroke-linecap="round" stroke-linejoin="round"/>
<path id="Vector_6" d="M161.343 187.317C180.197 169.53 189.66 142.297 185.9 116.651" stroke="#060305" stroke-width="0.897428" stroke-miterlimit="10" stroke-linecap="round" stroke-linejoin="round"/>
</g>
</g>
</g>
</g>
</g>
</g>
<defs>
<clipPath id="clip0_349_13497">
<rect width="1920" height="10843" fill="white" transform="translate(-420 -3616)"/>
</clipPath>
</defs>
</svg>
