<svg width="67" height="45" viewBox="0 0 67 45" fill="none" xmlns="http://www.w3.org/2000/svg">
<g clip-path="url(#clip0_349_16095)">
<path d="M15.2099 44.5367V41.6166C15.2099 40.4996 14.5323 39.7682 13.369 39.7682C12.7874 39.7682 12.155 39.961 11.7202 40.596C11.3813 40.063 10.8957 39.7682 10.1673 39.7682C9.68163 39.7682 9.196 39.9156 8.81201 40.4486V39.8646H7.79558V44.5367H8.81201V41.9568C8.81201 41.129 9.24682 40.7378 9.92445 40.7378C10.6021 40.7378 10.9409 41.1744 10.9409 41.9568V44.5367H11.9573V41.9568C11.9573 41.129 12.443 40.7378 13.0698 40.7378C13.7474 40.7378 14.0862 41.1744 14.0862 41.9568V44.5367H15.2099ZM30.2871 39.8646H28.6382V38.4527H27.6217V39.8646H26.7013V40.7888H27.6217V42.9321C27.6217 44.0037 28.0565 44.6331 29.2198 44.6331C29.6546 44.6331 30.1402 44.4857 30.4791 44.2929L30.1854 43.4141C29.8918 43.6068 29.553 43.6579 29.3102 43.6579C28.8245 43.6579 28.6325 43.363 28.6325 42.8811V40.7888H30.2814V39.8646H30.2871ZM38.9155 39.7625C38.3339 39.7625 37.9442 40.0573 37.7014 40.4429V39.8589H36.685V44.5311H37.7014V41.9001C37.7014 41.1233 38.0402 40.6811 38.6727 40.6811C38.8647 40.6811 39.1075 40.7321 39.3051 40.7775L39.5988 39.8022C39.3955 39.7625 39.1075 39.7625 38.9155 39.7625ZM25.8769 40.2501C25.3912 39.9099 24.7136 39.7625 23.9852 39.7625C22.8219 39.7625 22.0483 40.3465 22.0483 41.2708C22.0483 42.0476 22.6299 42.4898 23.6463 42.6316L24.132 42.6826C24.6628 42.779 24.9564 42.9264 24.9564 43.1702C24.9564 43.5104 24.5668 43.7543 23.8892 43.7543C23.2115 43.7543 22.6751 43.5104 22.3363 43.2666L21.8506 44.0434C22.3814 44.4347 23.1099 44.6275 23.8383 44.6275C25.1936 44.6275 25.9729 43.9924 25.9729 43.1192C25.9729 42.2914 25.3404 41.8548 24.3748 41.7074L23.8892 41.6563C23.4543 41.6053 23.1155 41.5089 23.1155 41.2197C23.1155 40.8795 23.4544 40.6867 23.9908 40.6867C24.5724 40.6867 25.1541 40.9305 25.4477 41.078L25.8769 40.2501ZM52.9197 39.7625C52.3381 39.7625 51.9485 40.0573 51.7056 40.4429V39.8589H50.6892V44.5311H51.7056V41.9001C51.7056 41.1233 52.0445 40.6811 52.6769 40.6811C52.8689 40.6811 53.1117 40.7321 53.3094 40.7775L53.603 39.8135C53.4053 39.7625 53.1174 39.7625 52.9197 39.7625ZM39.9319 42.2006C39.9319 43.6125 40.9032 44.6331 42.4052 44.6331C43.0829 44.6331 43.5685 44.4857 44.0541 44.1001L43.5685 43.2723C43.1789 43.5671 42.7949 43.7089 42.3544 43.7089C41.53 43.7089 40.9484 43.1249 40.9484 42.2006C40.9484 41.3218 41.53 40.7378 42.3544 40.6924C42.7892 40.6924 43.1789 40.8398 43.5685 41.129L44.0541 40.3012C43.5685 39.9099 43.0829 39.7682 42.4052 39.7682C40.9032 39.7625 39.9319 40.7888 39.9319 42.2006ZM49.334 42.2006V39.8646H48.3175V40.4486C47.9787 40.012 47.4931 39.7682 46.8606 39.7682C45.5506 39.7682 44.5341 40.7888 44.5341 42.2006C44.5341 43.6125 45.5506 44.6331 46.8606 44.6331C47.5382 44.6331 48.0239 44.3893 48.3175 43.9527V44.5367H49.334V42.2006ZM45.6014 42.2006C45.6014 41.3728 46.1322 40.6924 47.0074 40.6924C47.8319 40.6924 48.4135 41.3275 48.4135 42.2006C48.4135 43.0285 47.8319 43.7089 47.0074 43.7089C46.1378 43.6579 45.6014 43.0228 45.6014 42.2006ZM33.438 39.7625C32.0828 39.7625 31.1115 40.7378 31.1115 42.195C31.1115 43.6579 32.0828 44.6275 33.4888 44.6275C34.1665 44.6275 34.8441 44.4347 35.3805 43.9924L34.8949 43.261C34.5053 43.5558 34.0196 43.7486 33.5397 43.7486C32.9072 43.7486 32.2804 43.4537 32.1336 42.6316H35.5725C35.5725 42.4842 35.5725 42.3878 35.5725 42.2403C35.6177 40.7378 34.7424 39.7625 33.438 39.7625ZM33.438 40.6414C34.0705 40.6414 34.5053 41.0326 34.6013 41.7584H32.1788C32.2748 41.129 32.7096 40.6414 33.438 40.6414ZM58.6908 42.2006V38.0161H57.6744V40.4486C57.3356 40.012 56.8499 39.7682 56.2175 39.7682C54.9074 39.7682 53.891 40.7888 53.891 42.2006C53.891 43.6125 54.9074 44.6331 56.2175 44.6331C56.8951 44.6331 57.3807 44.3893 57.6744 43.9527V44.5367H58.6908V42.2006ZM54.9582 42.2006C54.9582 41.3728 55.489 40.6924 56.3643 40.6924C57.1888 40.6924 57.7704 41.3275 57.7704 42.2006C57.7704 43.0285 57.1888 43.7089 56.3643 43.7089C55.489 43.6579 54.9582 43.0228 54.9582 42.2006ZM20.9302 42.2006V39.8646H19.9138V40.4486C19.5749 40.012 19.0893 39.7682 18.4569 39.7682C17.1468 39.7682 16.1304 40.7888 16.1304 42.2006C16.1304 43.6125 17.1468 44.6331 18.4569 44.6331C19.1345 44.6331 19.6201 44.3893 19.9138 43.9527V44.5367H20.9302V42.2006ZM17.1524 42.2006C17.1524 41.3728 17.6832 40.6924 18.5585 40.6924C19.383 40.6924 19.9646 41.3275 19.9646 42.2006C19.9646 43.0285 19.383 43.7089 18.5585 43.7089C17.6832 43.6579 17.1524 43.0228 17.1524 42.2006Z" fill="#34445F"/>
<path d="M40.8108 4.38135H25.5417V31.9267H40.8108V4.38135Z" fill="#4E6690"/>
<path d="M26.558 18.1539C26.558 12.5575 29.1782 7.59052 33.1987 4.38124C30.2398 2.04516 26.5072 0.633301 22.4358 0.633301C12.791 0.633301 4.98698 8.46938 4.98698 18.1539C4.98698 27.8385 12.791 35.6745 22.4358 35.6745C26.5072 35.6745 30.2398 34.2627 33.1987 31.9266C29.1725 28.7627 26.558 23.7503 26.558 18.1539Z" fill="#3B5074"/>
<path d="M61.4136 18.1539C61.4136 27.8385 53.6096 35.6745 43.9648 35.6745C39.8934 35.6745 36.1608 34.2627 33.2018 31.9266C37.2732 28.7117 39.8425 23.7503 39.8425 18.1539C39.8425 12.5575 37.2224 7.59052 33.2018 4.38124C36.1551 2.04516 39.8877 0.633301 43.9591 0.633301C53.6096 0.633301 61.4136 8.52041 61.4136 18.1539Z" fill="#34445F"/>
</g>
<defs>
<clipPath id="clip0_349_16095">
<rect width="66" height="44" fill="white" transform="translate(0.166672 0.633301)"/>
</clipPath>
</defs>
</svg>
