<svg width="235" height="40" viewBox="0 0 235 40" fill="none" xmlns="http://www.w3.org/2000/svg">
<g clip-path="url(#clip0_349_16437)">
<path d="M57.2615 17.6384C56.5994 16.6304 55.6236 15.8657 54.3441 15.3444C53.0647 14.823 51.3769 14.5648 49.2908 14.5648C47.394 14.5648 45.5171 14.8727 43.6701 15.4884C41.818 16.1041 40.1502 17.0276 38.6617 18.259L41.8877 22.1419C42.7739 21.2878 43.7297 20.6225 44.7604 20.1309C45.7859 19.6444 46.8862 19.396 48.0562 19.396C49.2908 19.396 50.3015 19.7686 51.0932 20.5084C51.8848 21.2482 52.1983 22.2511 52.0441 23.5124C50.5554 23.5124 48.9026 23.557 47.0854 23.6564C45.2683 23.7507 43.5257 24.0585 41.8679 24.5798C40.205 25.1013 38.7662 25.9057 37.5515 26.993C36.3316 28.0804 35.5798 29.6196 35.2962 31.6059C35.1369 32.7726 35.2164 33.8006 35.5351 34.6844C35.8488 35.5682 36.3516 36.308 37.0287 36.9088C37.7108 37.5095 38.5222 37.9564 39.4731 38.2594C40.424 38.5573 41.4346 38.7113 42.51 38.7113C43.9639 38.7113 45.3877 38.4431 46.7817 37.9069C48.1756 37.3705 49.3456 36.4867 50.2916 35.2552H50.3862L50.0077 38.1402H56.5545L58.1677 26.4518C58.4513 24.5253 58.541 22.832 58.4266 21.3623C58.3169 19.8926 57.9286 18.6563 57.2615 17.6483V17.6384ZM51.1728 29.1132C51.0732 29.8928 50.8143 30.568 50.4111 31.144C50.0028 31.72 49.505 32.1918 48.9076 32.5642C48.3151 32.9366 47.6529 33.2246 46.9211 33.428C46.1893 33.6316 45.4524 33.7311 44.7056 33.7311C44.2974 33.7311 43.8841 33.6813 43.4609 33.577C43.0377 33.4777 42.6743 33.309 42.3657 33.0707C42.0619 32.8322 41.823 32.5541 41.6538 32.2314C41.4845 31.9088 41.4346 31.5114 41.4994 31.0398C41.5989 30.1956 41.9675 29.5352 42.5947 29.0587C43.222 28.5869 43.9488 28.2293 44.7853 27.9911C45.6167 27.7528 46.463 27.6088 47.3292 27.5591C48.1956 27.5093 48.9125 27.4846 49.4901 27.4846H51.3719L51.1678 29.1082L51.1728 29.1132ZM36.4262 14.8032C36.0778 14.7088 35.6994 14.6443 35.2861 14.6145C34.873 14.5847 34.4647 14.5648 34.0516 14.5648C32.4683 14.5648 31.1092 14.9174 29.9691 15.6274C28.829 16.3375 27.7884 17.4 26.8375 18.8201H26.7429L27.2657 15.1309H20.1464L16.9203 38.1303H24.0397L25.3688 28.5223C25.5282 27.3853 25.7423 26.3476 26.0111 25.3992C26.2799 24.4509 26.6683 23.6415 27.1762 22.9612C27.6839 22.281 28.361 21.7547 29.2173 21.3773C30.0736 20.9998 31.1789 20.8112 32.5379 20.8112C33.0757 20.8112 33.5834 20.8509 34.0565 20.9303C34.5294 21.0099 35.0223 21.129 35.5252 21.2878L36.4262 14.8032ZM10.5228 8.31847H3.40349L0.0827909 31.7448C-0.076523 33.0061 -0.00682677 34.0785 0.296865 34.9623C0.595579 35.8463 1.08846 36.5661 1.76554 37.1173C2.4476 37.6684 3.27405 38.0707 4.25482 38.3238C5.2356 38.5772 6.3259 38.7013 7.53072 38.7013C8.35218 38.7013 9.19853 38.6566 10.0698 38.5573C10.941 38.4629 11.7874 38.2743 12.6089 37.9912L13.3755 32.3754C13.3755 32.3754 12.584 32.5392 11.9666 32.6187C11.3493 32.6981 10.8514 32.7379 10.473 32.7379C9.71629 32.7379 9.11888 32.6337 8.69571 32.4301C8.26755 32.2265 7.96882 31.9335 7.79457 31.5562C7.62033 31.1789 7.53569 30.7271 7.53569 30.2055C7.53569 29.6842 7.58547 29.1082 7.68007 28.4777L8.77037 20.8112H15.0334L15.8399 15.1309H9.5769L10.5278 8.3135L10.5228 8.31847ZM97.4086 20.3892C98.011 20.1061 98.6085 19.9621 99.2109 19.9621C100.948 19.9621 102.248 20.6076 103.104 21.9036L108.038 17.5987C107.122 16.4616 105.917 15.6721 104.433 15.2302C102.945 14.7883 101.446 14.5698 99.9229 14.5698C98.718 14.5698 97.5181 14.7188 96.3184 15.0216C95.1136 15.3196 94.0182 15.7863 93.0225 16.4169C92.0269 17.0475 91.1805 17.8519 90.4834 18.83C89.7865 19.8082 89.3435 20.9751 89.1542 22.3307C88.9302 23.7804 89.0596 24.9423 89.5325 25.8112C90.0056 26.6802 90.6627 27.3505 91.5042 27.8223C92.3404 28.2939 93.2615 28.6514 94.2573 28.8848C95.2529 29.1232 96.1889 29.3417 97.0551 29.5452C97.9264 29.7488 98.6384 30.0021 99.1909 30.305C99.7435 30.6029 99.9725 31.0547 99.8779 31.6554C99.7835 32.2861 99.3851 32.7181 98.6931 32.9564C97.9961 33.1947 97.2394 33.309 96.413 33.309C95.3376 33.309 94.4265 33.0954 93.6846 32.6684C92.943 32.2413 92.2856 31.6208 91.7132 30.8015L86.7297 35.5831C87.7105 36.7499 88.99 37.5642 90.5731 38.021C92.1564 38.4779 93.7543 38.7063 95.3675 38.7063C96.6021 38.7063 97.8667 38.5871 99.1661 38.3537C100.46 38.1154 101.655 37.7082 102.751 37.1223C103.841 36.5364 104.782 35.7667 105.573 34.8034C106.365 33.8402 106.853 32.6187 107.042 31.1341C107.231 29.6842 107.097 28.5223 106.639 27.6533C106.181 26.7846 105.539 26.0992 104.717 25.5928C103.896 25.0863 102.985 24.7189 101.989 24.4806C100.993 24.2423 100.067 24.0238 99.2109 23.8202C98.3546 23.6166 97.6426 23.3783 97.0751 23.1101C96.5074 22.8421 96.2685 22.425 96.3631 21.8539C96.4578 21.1589 96.8063 20.6722 97.4086 20.3842V20.3892ZM120.176 11.4913C120.395 9.97689 120.823 8.97388 121.455 8.48729C122.087 8.00068 122.973 7.75241 124.114 7.75241C124.557 7.75241 124.945 7.79214 125.279 7.87159C125.612 7.95102 125.966 8.0702 126.344 8.22412L127.529 2.21609C126.897 2.05719 126.23 1.94795 125.538 1.8834C124.84 1.81885 124.129 1.78906 123.402 1.78906C121.47 1.78906 119.882 2.03235 118.632 2.52393C117.383 3.0155 116.377 3.68582 115.62 4.53489C114.858 5.38892 114.301 6.37205 113.937 7.49422C113.574 8.61637 113.295 9.80805 113.106 11.0692L109.307 38.1402H116.427L118.846 20.8162H124.114L124.92 15.1359H119.653L120.176 11.4913ZM169.294 14.6145C168.881 14.5847 168.473 14.5648 168.059 14.5648C166.476 14.5648 165.117 14.9174 163.977 15.6274C162.837 16.3375 161.796 17.4 160.845 18.8201H160.751L161.274 15.1309H154.154L150.928 38.1303H158.047L159.377 28.5223C159.536 27.3853 159.75 26.3476 160.019 25.3992C160.288 24.4509 160.676 23.6415 161.184 22.9612C161.692 22.281 162.369 21.7547 163.225 21.3773C164.082 20.9998 165.187 20.8112 166.546 20.8112C167.083 20.8112 167.591 20.8509 168.064 20.9303C168.537 21.0099 169.03 21.129 169.533 21.2878L170.434 14.8032C170.086 14.7088 169.707 14.6443 169.294 14.6145ZM82.229 15.394C81.1835 14.8429 79.7597 14.5648 77.9573 14.5648C77.101 14.5648 76.2946 14.6741 75.5379 14.8975C74.7761 15.121 74.0991 15.404 73.4966 15.7516C72.8943 16.0991 72.3565 16.4914 71.8836 16.9333C71.4105 17.3752 71.0273 17.8171 70.7435 18.259H70.6488L71.077 15.1359H64.2414L61.0154 38.1353H68.1347L69.7478 26.6802C69.8425 25.9206 69.9868 25.1956 70.176 24.5004C70.365 23.8053 70.6489 23.1846 71.0323 22.6335C71.4105 22.0823 71.9085 21.6404 72.5259 21.3078C73.1431 20.9751 73.9099 20.8112 74.8259 20.8112C75.742 20.8112 76.4241 20.9998 76.8671 21.3773C77.3102 21.7547 77.6089 22.2461 77.7683 22.8471C77.9276 23.4478 77.9724 24.1032 77.9126 24.8133C77.8478 25.5232 77.7683 26.2086 77.6737 26.8739L76.1054 38.1402H83.2248L84.9821 25.4537C85.2012 23.9095 85.2958 22.4747 85.266 21.1488C85.2361 19.8231 84.9821 18.6712 84.5043 17.693C84.0312 16.7148 83.2696 15.9502 82.2241 15.399L82.229 15.394ZM147.224 17.8568C146.432 16.7992 145.407 15.9849 144.137 15.4189C142.873 14.8528 141.414 14.5648 139.771 14.5648C137.999 14.5648 136.291 14.8479 134.648 15.4189C133.005 15.9849 131.532 16.7992 130.237 17.8568C128.938 18.9144 127.858 20.1855 126.986 21.6652C126.115 23.1499 125.552 24.8032 125.303 26.6356C125.05 28.4678 125.154 30.1212 125.612 31.6059C126.07 33.0905 126.797 34.3566 127.793 35.4143C128.788 36.4718 130.028 37.2861 131.517 37.8522C133.005 38.4183 134.633 38.7063 136.406 38.7063C138.273 38.7063 140.13 38.3139 141.982 37.5246C143.834 36.7351 145.422 35.6177 146.751 34.1629L142.29 30.5185C141.563 31.3377 140.762 32.008 139.896 32.5293C139.024 33.0507 138.004 33.309 136.834 33.309C135.44 33.309 134.325 32.9067 133.488 32.1023C132.652 31.2979 132.184 30.2154 132.089 28.86H148.603L148.937 26.6356C149.191 24.8084 149.166 23.1499 148.867 21.6652C148.563 20.1806 148.021 18.9144 147.229 17.8568H147.224ZM142.146 24.0337H132.751C132.876 23.4676 133.1 22.9215 133.413 22.4002C133.732 21.8787 134.125 21.4219 134.599 21.0297C135.071 20.6373 135.624 20.3147 136.261 20.0615C136.894 19.8082 137.606 19.684 138.397 19.684C139.691 19.684 140.692 20.1111 141.384 20.9602C142.081 21.8143 142.335 22.8372 142.146 24.0387V24.0337Z" fill="white"/>
<path d="M182.069 15.1404C182.748 13.8093 183.606 12.6626 184.647 11.6954C185.687 10.7282 186.882 9.97536 188.235 9.43692C189.588 8.89848 191.055 8.62927 192.626 8.62927C194.514 8.62927 196.062 8.89848 197.256 9.43692C198.451 9.97536 199.477 10.7681 200.328 11.815L206.331 6.11155C204.849 4.52614 203.03 3.40936 200.875 2.76125C198.718 2.11311 196.3 1.78906 193.623 1.78906C190.947 1.78906 188.537 2.20287 186.208 3.02548C183.878 3.8481 181.807 5.02969 179.997 6.56523C178.183 8.10079 176.672 9.96538 175.462 12.1491C174.248 14.3328 173.455 16.7757 173.078 19.4678C172.701 22.16 172.811 24.5981 173.41 26.7867C174.01 28.9703 175.001 30.8351 176.384 32.3705C177.772 33.9061 179.512 35.0876 181.603 35.9103C183.695 36.733 186.049 37.1467 188.666 37.1467C191.124 37.1467 193.562 36.8924 195.988 36.389C198.411 35.8804 200.804 35.0577 203.168 33.916L205.628 16.332H192.542L191.55 23.1772H197.549L196.795 28.6413C196.072 29.0202 195.095 29.3941 193.865 29.7581C192.637 30.1221 191.219 30.3065 189.613 30.3065C188.007 30.3065 186.654 30.0373 185.454 29.4989C184.255 28.9604 183.274 28.2076 182.501 27.2404C181.727 26.2732 181.187 25.1314 180.87 23.8202C180.553 22.504 180.508 21.0583 180.726 19.473C180.944 17.9224 181.395 16.4815 182.074 15.1504L182.069 15.1404ZM233.696 19.1139C233.22 17.5684 232.462 16.2472 231.415 15.1454C230.37 14.0436 229.082 13.201 227.545 12.6077C226.009 12.0145 224.328 11.7203 222.499 11.7203C220.671 11.7203 218.906 12.0145 217.206 12.6077C215.506 13.201 213.989 14.0436 212.651 15.1454C211.312 16.2472 210.193 17.5684 209.295 19.1139C208.398 20.6594 207.819 22.3844 207.557 24.289C207.294 26.1933 207.402 27.9185 207.873 29.464C208.345 31.0095 209.097 32.3307 210.128 33.4324C211.158 34.5343 212.438 35.3817 213.974 35.9701C215.51 36.5634 217.191 36.8575 219.021 36.8575C220.848 36.8575 222.613 36.5634 224.313 35.9701C226.013 35.3768 227.53 34.5343 228.868 33.4324C230.207 32.3307 231.337 31.0095 232.249 29.464C233.161 27.9185 233.751 26.1933 234.014 24.289C234.277 22.3844 234.166 20.6594 233.696 19.1139ZM226.664 24.289C226.401 26.0987 225.676 27.5594 224.482 28.6762C223.287 29.793 221.762 30.3514 219.902 30.3514C218.044 30.3514 216.675 29.793 215.813 28.6762C214.947 27.5594 214.644 26.0987 214.907 24.289C215.169 22.4842 215.887 21.0185 217.062 19.9017C218.236 18.7849 219.759 18.2265 221.617 18.2265C223.475 18.2265 224.85 18.7849 225.731 19.9017C226.614 21.0185 226.927 22.4792 226.664 24.289Z" fill="#FFBD00"/>
</g>
<defs>
<clipPath id="clip0_349_16437">
<rect width="234.154" height="40" fill="white"/>
</clipPath>
</defs>
</svg>
