<svg width="235" height="40" viewBox="0 0 235 40" fill="none" xmlns="http://www.w3.org/2000/svg">
<g clip-path="url(#clip0_349_16169)">
<path d="M57.2616 17.6389C56.5995 16.6309 55.6237 15.8662 54.3442 15.3449C53.0647 14.8235 51.3769 14.5653 49.2908 14.5653C47.394 14.5653 45.5172 14.8732 43.6702 15.4889C41.8181 16.1046 40.1503 17.0281 38.6618 18.2595L41.8878 22.1424C42.7739 21.2883 43.7298 20.623 44.7604 20.1314C45.786 19.6449 46.8863 19.3965 48.0563 19.3965C49.2908 19.3965 50.3015 19.7691 51.0933 20.5089C51.8848 21.2487 52.1984 22.2515 52.0442 23.5129C50.5555 23.5129 48.9027 23.5575 47.0854 23.6569C45.2684 23.7512 43.5257 24.059 41.868 24.5803C40.2051 25.1018 38.7663 25.9062 37.5516 26.9935C36.3317 28.0809 35.5799 29.6201 35.2963 31.6064C35.1369 32.7731 35.2165 33.8011 35.5352 34.6849C35.8489 35.5687 36.3517 36.3085 37.0288 36.9093C37.7109 37.51 38.5222 37.9569 39.4731 38.2599C40.424 38.5578 41.4347 38.7117 42.5101 38.7117C43.9639 38.7117 45.3877 38.4435 46.7818 37.9074C48.1757 37.371 49.3457 36.4872 50.2916 35.2557H50.3862L50.0078 38.1407H56.5546L58.1678 26.4523C58.4514 24.5258 58.5411 22.8325 58.4267 21.3628C58.317 19.8931 57.9286 18.6567 57.2616 17.6488V17.6389ZM51.1728 29.1136C51.0733 29.8933 50.8144 30.5685 50.4112 31.1445C50.0028 31.7205 49.505 32.1923 48.9076 32.5647C48.3152 32.9371 47.6529 33.2251 46.9211 33.4285C46.1894 33.6321 45.4524 33.7315 44.7056 33.7315C44.2975 33.7315 43.8842 33.6818 43.461 33.5774C43.0378 33.4782 42.6744 33.3095 42.3658 33.0712C42.062 32.8327 41.8231 32.5546 41.6538 32.2319C41.4846 31.9093 41.4347 31.5119 41.4994 31.0403C41.599 30.1961 41.9675 29.5357 42.5948 29.0592C43.2221 28.5874 43.9489 28.2298 44.7854 27.9915C45.6167 27.7533 46.4631 27.6093 47.3293 27.5595C48.1957 27.5098 48.9126 27.4851 49.4902 27.4851H51.372L51.1679 29.1087L51.1728 29.1136ZM36.4263 14.8037C36.0779 14.7093 35.6995 14.6448 35.2862 14.615C34.8731 14.5852 34.4647 14.5653 34.0516 14.5653C32.4683 14.5653 31.1093 14.9179 29.9692 15.6279C28.829 16.3379 27.7885 17.4005 26.8376 18.8206H26.743L27.2657 15.1314H20.1465L16.9203 38.1308H24.0397L25.3689 28.5228C25.5282 27.3858 25.7424 26.3481 26.0112 25.3997C26.28 24.4514 26.6684 23.642 27.1763 22.9616C27.684 22.2815 28.3611 21.7552 29.2174 21.3778C30.0737 21.0003 31.179 20.8117 32.538 20.8117C33.0758 20.8117 33.5835 20.8514 34.0566 20.9308C34.5294 21.0104 35.0223 21.1295 35.5253 21.2883L36.4263 14.8037ZM10.5229 8.31895H3.40355L0.082852 31.7453C-0.0764619 33.0066 -0.00676573 34.079 0.296926 34.9628C0.59564 35.8468 1.08852 36.5666 1.7656 37.1178C2.44767 37.6689 3.27411 38.0712 4.25488 38.3243C5.23566 38.5776 6.32596 38.7018 7.53078 38.7018C8.35225 38.7018 9.19859 38.6571 10.0698 38.5578C10.9411 38.4634 11.7875 38.2748 12.6089 37.9917L13.3756 32.3759C13.3756 32.3759 12.584 32.5397 11.9667 32.6192C11.3493 32.6986 10.8515 32.7384 10.4731 32.7384C9.71635 32.7384 9.11894 32.6342 8.69577 32.4306C8.26761 32.227 7.96888 31.934 7.79464 31.5567C7.62039 31.1794 7.53575 30.7275 7.53575 30.206C7.53575 29.6847 7.58553 29.1087 7.68013 28.4782L8.77043 20.8117H15.0335L15.84 15.1314H9.57696L10.5279 8.31398L10.5229 8.31895ZM97.4087 20.3896C98.011 20.1066 98.6086 19.9626 99.2109 19.9626C100.948 19.9626 102.248 20.6081 103.104 21.9041L108.038 17.5991C107.122 16.4621 105.917 15.6726 104.434 15.2307C102.945 14.7888 101.446 14.5703 99.9229 14.5703C98.7181 14.5703 97.5182 14.7193 96.3185 15.0221C95.1136 15.3201 94.0182 15.7868 93.0226 16.4174C92.027 17.048 91.1806 17.8524 90.4835 18.8305C89.7865 19.8087 89.3435 20.9755 89.1543 22.3312C88.9302 23.7809 89.0597 24.9428 89.5326 25.8117C90.0056 26.6807 90.6628 27.351 91.5042 27.8228C92.3405 28.2944 93.2615 28.6519 94.2573 28.8853C95.253 29.1237 96.189 29.3422 97.0552 29.5456C97.9265 29.7493 98.6385 30.0026 99.1909 30.3055C99.7436 30.6034 99.9726 31.0552 99.878 31.6559C99.7836 32.2866 99.3851 32.7186 98.6931 32.9569C97.9962 33.1952 97.2395 33.3095 96.4131 33.3095C95.3377 33.3095 94.4266 33.0959 93.6847 32.6689C92.943 32.2418 92.2857 31.6213 91.7132 30.802L86.7298 35.5835C87.7105 36.7504 88.99 37.5647 90.5731 38.0215C92.1564 38.4784 93.7544 38.7068 95.3676 38.7068C96.6021 38.7068 97.8667 38.5875 99.1662 38.3542C100.461 38.1159 101.655 37.7087 102.751 37.1228C103.841 36.5369 104.782 35.7672 105.573 34.8039C106.365 33.8407 106.853 32.6192 107.042 31.1346C107.231 29.6847 107.097 28.5228 106.639 27.6538C106.181 26.7851 105.539 26.0997 104.717 25.5933C103.896 25.0868 102.985 24.7194 101.989 24.4811C100.993 24.2428 100.067 24.0243 99.2109 23.8207C98.3546 23.6171 97.6427 23.3788 97.0752 23.1106C96.5075 22.8426 96.2686 22.4255 96.3632 21.8544C96.4578 21.1594 96.8064 20.6727 97.4087 20.3847V20.3896ZM120.176 11.4918C120.395 9.97737 120.823 8.97436 121.455 8.48777C122.087 8.00116 122.974 7.7529 124.114 7.7529C124.557 7.7529 124.945 7.79263 125.279 7.87208C125.612 7.95151 125.966 8.07069 126.344 8.22461L127.529 2.21657C126.897 2.05768 126.23 1.94844 125.538 1.88389C124.84 1.81934 124.129 1.78955 123.402 1.78955C121.47 1.78955 119.882 2.03284 118.632 2.52442C117.383 3.01598 116.377 3.68631 115.62 4.53537C114.858 5.38941 114.301 6.37254 113.937 7.49471C113.574 8.61686 113.295 9.80854 113.106 11.0697L109.308 38.1407H116.427L118.846 20.8167H124.114L124.92 15.1363H119.653L120.176 11.4918ZM169.294 14.615C168.881 14.5852 168.473 14.5653 168.059 14.5653C166.476 14.5653 165.117 14.9179 163.977 15.6279C162.837 16.3379 161.796 17.4005 160.846 18.8206H160.751L161.274 15.1314H154.154L150.928 38.1308H158.048L159.377 28.5228C159.536 27.3858 159.75 26.3481 160.019 25.3997C160.288 24.4514 160.676 23.642 161.184 22.9616C161.692 22.2815 162.369 21.7552 163.225 21.3778C164.082 21.0003 165.187 20.8117 166.546 20.8117C167.084 20.8117 167.591 20.8514 168.064 20.9308C168.537 21.0104 169.03 21.1295 169.533 21.2883L170.434 14.8037C170.086 14.7093 169.707 14.6448 169.294 14.615ZM82.2291 15.3945C81.1836 14.8434 79.7598 14.5653 77.9574 14.5653C77.1011 14.5653 76.2947 14.6746 75.538 14.898C74.7761 15.1215 74.0992 15.4045 73.4966 15.752C72.8943 16.0996 72.3565 16.4919 71.8837 16.9338C71.4106 17.3757 71.0274 17.8176 70.7435 18.2595H70.6489L71.077 15.1363H64.2415L61.0155 38.1357H68.1347L69.7479 26.6807C69.8425 25.9211 69.9868 25.1961 70.176 24.5009C70.3651 23.8058 70.6489 23.1851 71.0323 22.634C71.4106 22.0828 71.9086 21.6409 72.526 21.3083C73.1431 20.9755 73.9099 20.8117 74.826 20.8117C75.7421 20.8117 76.4241 21.0003 76.8671 21.3778C77.3103 21.7552 77.609 22.2466 77.7683 22.8475C77.9277 23.4483 77.9724 24.1037 77.9126 24.8138C77.8479 25.5237 77.7683 26.2091 77.6737 26.8744L76.1055 38.1407H83.2249L84.9822 25.4542C85.2013 23.91 85.2959 22.4752 85.266 21.1493C85.2361 19.8235 84.9822 18.6716 84.5044 17.6935C84.0313 16.7153 83.2696 15.9507 82.2241 15.3995L82.2291 15.3945ZM147.224 17.8573C146.433 16.7997 145.407 15.9854 144.137 15.4194C142.873 14.8533 141.414 14.5653 139.771 14.5653C137.999 14.5653 136.291 14.8483 134.648 15.4194C133.005 15.9854 131.532 16.7997 130.237 17.8573C128.938 18.9149 127.858 20.186 126.986 21.6656C126.115 23.1504 125.552 24.8037 125.303 26.6361C125.05 28.4683 125.154 30.1216 125.612 31.6064C126.07 33.091 126.797 34.3571 127.793 35.4148C128.789 36.4723 130.028 37.2866 131.517 37.8527C133.005 38.4188 134.633 38.7068 136.406 38.7068C138.273 38.7068 140.13 38.3144 141.982 37.5251C143.834 36.7355 145.422 35.6182 146.751 34.1634L142.29 30.519C141.563 31.3382 140.762 32.0085 139.896 32.5298C139.025 33.0512 138.004 33.3095 136.834 33.3095C135.44 33.3095 134.325 32.9072 133.488 32.1028C132.652 31.2984 132.184 30.2159 132.089 28.8605H148.603L148.937 26.6361C149.191 24.8089 149.166 23.1504 148.867 21.6656C148.563 20.1811 148.021 18.9149 147.229 17.8573H147.224ZM142.146 24.0342H132.751C132.876 23.4681 133.1 22.922 133.414 22.4007C133.732 21.8792 134.126 21.4224 134.599 21.0302C135.072 20.6378 135.624 20.3152 136.261 20.062C136.894 19.8087 137.606 19.6845 138.397 19.6845C139.692 19.6845 140.692 20.1115 141.384 20.9607C142.081 21.8148 142.335 22.8376 142.146 24.0392V24.0342Z" fill="black"/>
<path d="M182.069 15.1409C182.748 13.8098 183.606 12.6631 184.647 11.6959C185.687 10.7287 186.882 9.97585 188.235 9.43741C189.588 8.89897 191.055 8.62975 192.626 8.62975C194.514 8.62975 196.062 8.89897 197.256 9.43741C198.451 9.97585 199.477 10.7686 200.328 11.8155L206.331 6.11204C204.849 4.52663 203.03 3.40985 200.875 2.76174C198.718 2.1136 196.3 1.78955 193.623 1.78955C190.947 1.78955 188.537 2.20335 186.208 3.02596C183.878 3.84859 181.807 5.03017 179.997 6.56572C178.183 8.10128 176.672 9.96587 175.462 12.1496C174.248 14.3332 173.455 16.7762 173.078 19.4683C172.701 22.1605 172.811 24.5986 173.41 26.7872C174.01 28.9708 175.001 30.8355 176.384 32.371C177.772 33.9066 179.512 35.0881 181.603 35.9108C183.695 36.7334 186.049 37.1472 188.666 37.1472C191.124 37.1472 193.562 36.8929 195.988 36.3895C198.411 35.8809 200.804 35.0582 203.168 33.9165L205.628 16.3324H192.542L191.55 23.1776H197.549L196.795 28.6418C196.072 29.0207 195.095 29.3946 193.865 29.7586C192.637 30.1226 191.219 30.307 189.613 30.307C188.007 30.307 186.654 30.0378 185.454 29.4994C184.255 28.9609 183.274 28.2081 182.501 27.2409C181.727 26.2736 181.187 25.1319 180.87 23.8207C180.553 22.5045 180.508 21.0588 180.726 19.4734C180.944 17.9228 181.395 16.482 182.074 15.1509L182.069 15.1409ZM233.696 19.1144C233.22 17.5689 232.462 16.2477 231.415 15.1459C230.37 14.0441 229.082 13.2015 227.545 12.6082C226.009 12.015 224.328 11.7208 222.499 11.7208C220.671 11.7208 218.906 12.015 217.206 12.6082C215.506 13.2015 213.989 14.0441 212.651 15.1459C211.312 16.2477 210.193 17.5689 209.295 19.1144C208.398 20.6599 207.819 22.3849 207.557 24.2894C207.294 26.1938 207.402 27.919 207.873 29.4645C208.345 31.01 209.097 32.3312 210.128 33.4329C211.158 34.5348 212.438 35.3822 213.974 35.9706C215.51 36.5639 217.191 36.858 219.021 36.858C220.848 36.858 222.613 36.5639 224.313 35.9706C226.013 35.3773 227.53 34.5348 228.868 33.4329C230.207 32.3312 231.337 31.01 232.249 29.4645C233.161 27.919 233.751 26.1938 234.014 24.2894C234.277 22.3849 234.166 20.6599 233.696 19.1144ZM226.664 24.2894C226.401 26.0992 225.676 27.5599 224.482 28.6767C223.287 29.7934 221.762 30.3519 219.902 30.3519C218.044 30.3519 216.675 29.7934 215.813 28.6767C214.947 27.5599 214.644 26.0992 214.907 24.2894C215.169 22.4847 215.887 21.019 217.062 19.9022C218.236 18.7854 219.759 18.227 221.617 18.227C223.475 18.227 224.85 18.7854 225.731 19.9022C226.614 21.019 226.927 22.4797 226.664 24.2894Z" fill="#FFBD00"/>
</g>
<defs>
<clipPath id="clip0_349_16169">
<rect width="234.154" height="40" fill="white"/>
</clipPath>
</defs>
</svg>
